<?xml version="1.0" encoding="utf-8"?>
<!-- Generator: Adobe Illustrator 16.0.0, SVG Export Plug-In . SVG Version: 6.00 Build 0)  -->
<!DOCTYPE svg PUBLIC "-//W3C//DTD SVG 1.1//EN" "http://www.w3.org/Graphics/SVG/1.1/DTD/svg11.dtd">
<svg version="1.1" id="Layer_1" xmlns="http://www.w3.org/2000/svg" xmlns:xlink="http://www.w3.org/1999/xlink" x="0px" y="0px"
	 width="163px" height="155px" viewBox="0 0 163 155" enable-background="new 0 0 163 155" xml:space="preserve">
<path fill="#FFFFFF" d="M82.49,141.284c-1.495,0-2.991,0.034-4.485-0.013c-0.918-0.029-1.833-0.184-2.749-0.282
	c-0.556-0.062-1.111-0.122-1.666-0.19c-0.955-0.117-1.916-0.209-2.863-0.371c-1.119-0.188-2.236-0.41-3.338-0.679
	c-1.175-0.285-2.333-0.638-3.496-0.967c-0.805-0.229-1.617-0.44-2.407-0.712c-0.994-0.34-1.975-0.719-2.95-1.109
	c-1.001-0.4-2.008-0.792-2.979-1.26c-1.604-0.771-3.215-1.544-4.762-2.426c-1.668-0.949-3.285-1.996-4.888-3.055
	c-1.014-0.671-1.985-1.412-2.931-2.179c-1.411-1.144-2.818-2.294-4.16-3.517c-1.376-1.252-2.732-2.534-3.985-3.906
	c-1.492-1.637-2.908-3.344-4.275-5.083c-1.883-2.396-3.501-4.978-4.983-7.638c-1.169-2.101-2.24-4.254-3.103-6.504
	c-0.583-1.518-1.167-3.035-1.686-4.574c-0.446-1.326-0.824-2.678-1.189-4.027c-0.266-0.984-0.477-1.986-0.685-2.986
	c-0.189-0.908-0.368-1.818-0.502-2.735c-0.198-1.354-0.365-2.712-0.521-4.07c-0.084-0.737-0.153-1.479-0.172-2.221
	c-0.059-2.195-0.114-4.39-0.123-6.585c-0.004-0.994,0.085-1.99,0.168-2.982c0.088-1.059,0.195-2.118,0.336-3.17
	c0.126-0.937,0.313-1.864,0.468-2.796c0.125-0.754,0.223-1.513,0.37-2.262c0.127-0.651,0.31-1.291,0.463-1.936
	c0.127-0.537,0.231-1.079,0.374-1.612c0.195-0.729,0.411-1.452,0.629-2.174c0.234-0.775,0.47-1.549,0.726-2.317
	c0.229-0.689,0.462-1.378,0.735-2.05c0.468-1.151,0.952-2.296,1.46-3.43c0.451-1.004,0.89-2.019,1.429-2.976
	c1.086-1.927,2.18-3.855,3.38-5.712c0.933-1.443,2.01-2.796,3.059-4.161c1.877-2.441,3.938-4.724,6.189-6.819
	c1.822-1.695,3.69-3.348,5.619-4.919c2.287-1.862,4.737-3.513,7.308-4.957c1.952-1.097,3.964-2.097,5.991-3.052
	c1.386-0.652,2.831-1.187,4.273-1.711c1.22-0.444,2.468-0.815,3.714-1.184c0.738-0.219,1.496-0.371,2.245-0.55
	c0.9-0.215,1.796-0.454,2.704-0.635c0.805-0.16,1.622-0.255,2.434-0.38c1.018-0.157,2.035-0.314,3.053-0.471
	c0.056-0.009,0.112-0.013,0.168-0.017c1.163-0.072,2.326-0.174,3.49-0.208c2.279-0.064,4.559-0.113,6.839-0.122
	c1.037-0.004,2.077,0.084,3.112,0.168c1.029,0.084,2.059,0.195,3.082,0.331c1.133,0.151,2.262,0.328,3.388,0.522
	c0.817,0.141,1.634,0.304,2.438,0.499c1.018,0.247,2.025,0.53,3.033,0.808c1.045,0.288,2.104,0.538,3.123,0.894
	c1.424,0.498,2.842,1.025,4.219,1.638c1.916,0.853,3.811,1.759,5.679,2.713c2.085,1.065,4.035,2.359,5.962,3.691
	c2.137,1.475,4.172,3.074,6.091,4.813c1.582,1.432,3.142,2.899,4.595,4.46c1.521,1.633,2.943,3.364,4.33,5.115
	c1.088,1.372,2.125,2.795,3.059,4.276c1.189,1.892,2.29,3.845,3.361,5.809c0.662,1.213,1.229,2.482,1.785,3.75
	c0.412,0.941,0.75,1.916,1.104,2.881c0.335,0.91,0.67,1.821,0.969,2.743c0.216,0.665,0.369,1.351,0.556,2.026
	c0.207,0.755,0.438,1.505,0.623,2.266c0.157,0.646,0.26,1.305,0.39,1.957c0.157,0.787,0.327,1.571,0.47,2.361
	c0.091,0.507,0.145,1.022,0.204,1.534c0.071,0.639,0.136,1.279,0.203,1.918c0.102,0.986,0.212,1.971,0.3,2.957
	c0.036,0.407,0.021,0.817,0.032,1.227c0.044,1.926,0.112,3.851,0.116,5.775c0.002,1.094-0.084,2.188-0.168,3.279
	c-0.084,1.087-0.189,2.176-0.334,3.255c-0.121,0.908-0.312,1.81-0.467,2.714c-0.127,0.754-0.223,1.514-0.369,2.264
	c-0.125,0.635-0.303,1.26-0.455,1.89c-0.129,0.538-0.244,1.081-0.388,1.615c-0.192,0.718-0.396,1.433-0.616,2.142
	c-0.224,0.719-0.473,1.428-0.719,2.139c-0.287,0.828-0.551,1.666-0.879,2.479c-0.492,1.216-0.975,2.438-1.562,3.61
	c-0.827,1.656-1.732,3.277-2.633,4.896c-1.332,2.396-2.92,4.624-4.593,6.792c-1.958,2.539-4.087,4.931-6.421,7.126
	c-1.723,1.621-3.466,3.231-5.312,4.706c-1.836,1.466-3.771,2.82-5.738,4.103c-2.021,1.316-4.123,2.509-6.335,3.488
	c-1.199,0.532-2.366,1.143-3.583,1.625c-1.321,0.526-2.678,0.974-4.032,1.409c-1.149,0.372-2.317,0.69-3.481,1.017
	c-0.812,0.229-1.621,0.457-2.44,0.641c-0.704,0.156-1.423,0.247-2.134,0.374c-0.873,0.155-1.744,0.329-2.619,0.479
	c-0.454,0.076-0.912,0.137-1.371,0.174c-0.938,0.08-1.875,0.151-2.814,0.203c-1.826,0.096-3.651,0.172-5.479,0.258
	C82.492,141.363,82.491,141.324,82.49,141.284z"/>
<path d="M52.97,71.514c0-0.356-0.01-0.664,0.002-0.97c0.013-0.333-0.038-0.583-0.461-0.578c-0.204,0.002-0.408-0.09-0.613-0.092
	c-1.115-0.01-2.229-0.011-3.344-0.002c-0.745,0.006-0.872-0.096-0.875-0.867c0-0.127,0-0.254,0-0.381
	c0.008-2.864,0.018-5.728,0.024-8.592c0.001-0.874-0.022-1.749-0.005-2.622c0.01-0.553,0.113-0.632,0.659-0.633
	c1.186-0.003,2.371,0.021,3.556-0.006c1.577-0.037,2.604,0.82,3.426,2.032c0.926,1.369,1.131,2.957,1.159,4.528
	c0.071,4.133,0.032,8.268,0.035,12.402c0.002,3.33-0.005,6.66,0.013,9.99c0.002,0.381,0.072,0.791,0.224,1.139
	c0.268,0.611,0.572,1.219,0.951,1.765c0.861,1.24,2.052,2.065,3.485,2.526c0.499,0.162,1.006,0.309,1.52,0.404
	c0.613,0.113,1.237,0.23,1.855,0.227c0.561-0.006,1.12-0.176,1.68-0.271c1.015-0.176,1.941-0.587,2.795-1.139
	c0.966-0.625,1.898-1.305,2.836-1.973c0.588-0.418,0.934-0.422,1.474,0.029c0.652,0.543,1.284,1.115,1.961,1.627
	c1.014,0.764,2.164,1.243,3.421,1.44c0.509,0.08,1.03,0.095,1.533,0.198c1.303,0.267,2.612,0.209,3.883-0.069
	c1.263-0.278,2.386-0.907,3.316-1.847c0.574-0.579,0.801-0.604,1.481-0.2c1.376,0.81,2.685,1.746,4.323,2.004
	c1.001,0.158,1.997,0.151,2.951-0.131c1.08-0.319,2.041-0.913,2.966-1.558c0.571-0.401,1.131-0.828,1.731-1.182
	c0.986-0.577,1.059-0.611,1.991,0.188c0.062,0.053,0.113,0.119,0.179,0.166c0.57,0.42,1.119,0.875,1.722,1.246
	c0.937,0.576,1.938,1.01,3.028,1.218c0.815,0.155,1.625,0.375,2.449,0.452c0.881,0.082,1.778,0.08,2.663,0.021
	c1.056-0.066,2.126-0.139,3.151-0.378c1.143-0.269,2.254-0.687,3.268-1.317c1.428-0.894,2.652-2,3.522-3.447
	c0.545-0.905,1.065-1.846,1.442-2.829c0.353-0.921,0.611-1.907,0.715-2.886c0.201-1.891-0.053-3.731-0.771-5.526
	c-0.662-1.652-1.564-3.092-2.936-4.234c-1.354-1.128-2.924-1.828-4.621-2.187c-1.086-0.23-2.217-0.262-3.332-0.333
	c-0.438-0.028-0.887,0.076-1.329,0.127c-0.486,0.057-0.989,0.062-1.453,0.197c-0.996,0.292-1.983,0.619-2.95,0.995
	c-1.232,0.48-2.352,1.189-3.318,2.083c-1.687,1.562-2.676,3.545-3.084,5.785c-0.188,1.027-0.158,2.096-0.207,3.146
	c-0.082,1.766,0.207,3.548-0.178,5.298c-0.1,0.451-0.324,0.899-0.589,1.283c-0.323,0.47-0.853,0.636-1.416,0.758
	c-0.835,0.182-1.58,0.021-2.226-0.481c-0.662-0.519-0.858-1.274-0.857-2.097c0.003-4.485,0.016-8.973-0.016-13.459
	c-0.004-0.593-0.131-1.239-0.395-1.766c-0.637-1.279-1.799-1.891-3.173-2.058c-0.787-0.096-1.565,0-2.34,0.288
	c-1.487,0.554-2.251,1.682-2.494,3.144c-0.181,1.088-0.182,2.212-0.188,3.321c-0.014,3.23,0.011,6.46,0.02,9.692
	c0,0.099-0.014,0.202,0.012,0.295c0.25,0.974,0.07,1.928-0.227,2.836c-0.479,1.47-2.561,2.353-3.975,1.673
	c-0.799-0.383-1.506-0.938-1.966-1.75c-0.51-0.9-0.662-1.879-0.663-2.888c-0.006-4.347,0-8.692-0.006-13.038
	c-0.001-0.703-0.137-1.379-0.613-1.934c-0.916-1.065-2.143-1.523-3.487-1.639c-0.911-0.079-1.78,0.25-2.572,0.681
	c-1.202,0.654-1.924,1.657-1.953,3.075c-0.009,0.452,0.002,0.903-0.004,1.355c-0.04,2.576-0.068,5.151-0.13,7.729
	c-0.032,1.307-0.155,2.608-0.187,3.916c-0.032,1.313-0.563,2.31-1.716,2.952c-0.648,0.362-1.362,0.601-2.079,0.374
	c-1.466-0.459-2.538-1.695-2.506-3.465c0.043-2.396,0.028-4.797,0.007-7.195c-0.04-4.55-0.092-9.099-0.158-13.646
	c-0.016-1.107-0.135-2.212-0.154-3.319c-0.015-0.876-0.218-1.692-0.52-2.507c-0.604-1.631-2.704-3.239-4.435-3.341
	c-0.909-0.053-1.819-0.136-2.729-0.138c-5.672-0.013-11.344-0.006-17.016-0.007c-0.878,0-1.221,0.354-1.219,1.19
	c0.025,9.933,0.025,19.866,0.041,29.798c0.001,1.02,0.155,2.018,0.446,3.004c0.46,1.564,2.252,2.497,3.502,2.691
	c1.38,0.214,2.479-0.411,3.442-1.309c0.984-0.918,1.278-2.136,1.347-3.414c0.042-0.772-0.016-1.552-0.015-2.326
	c0.005-4.289,0.015-8.578,0.025-12.866c0-0.121,0.021-0.243,0.035-0.393c0.877,0,1.721,0,2.566,0
	C51.167,71.514,52.027,71.514,52.97,71.514z"/>
<path d="M128.062,84.4c-1.91-0.022-3.424,1.656-3.398,3.295c0.031,1.98,1.4,3.424,3.414,3.402c1.975-0.021,3.304-1.382,3.385-3.311
	C131.534,86.132,130.014,84.395,128.062,84.4z"/>
<path fill="#FFFFFF" d="M108.672,79.949c0-0.917-0.062-1.838,0.02-2.748c0.068-0.78,0.256-1.559,0.477-2.312
	c0.232-0.795,0.508-1.59,0.874-2.332c0.472-0.953,1.185-1.63,2.29-1.929c1.441-0.389,2.768,0.309,3.413,1.46
	c0.524,0.933,0.868,1.972,1.243,2.983c0.375,1.012,0.453,2.081,0.558,3.154c0.17,1.762,0.394,3.522,0.269,5.291
	c-0.125,1.784-0.463,3.536-1.539,5.03c-0.514,0.712-1.133,1.396-2.028,1.582c-1.233,0.256-2.365-0.065-3.179-1.069
	c-0.914-1.129-1.477-2.447-1.9-3.836c-0.508-1.66-0.541-3.354-0.525-5.062c0.002-0.07,0-0.142,0-0.211
	C108.65,79.949,108.661,79.949,108.672,79.949z"/>
</svg>
