<?xml version="1.0" encoding="utf-8"?>
<!-- Generator: Adobe Illustrator 21.0.0, SVG Export Plug-In . SVG Version: 6.00 Build 0)  -->
<svg version="1.1" id="Layer_1" xmlns="http://www.w3.org/2000/svg" xmlns:xlink="http://www.w3.org/1999/xlink" x="0px" y="0px"
	 viewBox="0 0 600 600" style="enable-background:new 0 0 600 600;" xml:space="preserve">
<style type="text/css">
	.st0{fill:#FFFFFF;}
</style>
<path class="st0" d="M300,14.7C142.4,14.7,14.7,142.4,14.7,300S142.4,585.3,300,585.3S585.3,457.6,585.3,300S457.6,14.7,300,14.7z"
	/>
<path d="M429.6,365.4c-17.9,0.1-29.8-8-35.8-13.2c-3-3-3-2.2-3.7-2.9c-1.5,0.1-3.7,1.6-5.9,3.1c-8.1,7.5-17.1,12.7-29.7,12
	c-13.4,0.1-20.9-9.5-24.6-10.3c-3.7-0.7-6.6,10.5-23.7,11.3c-7.5,0.8-26.8,0.9-38.7-10.9c-3-2.2-4.5-5.2-6.7-5.2
	c-3,0-4.4,2.3-11.1,7.5c-10.4,8.2-25.2,10.6-36.4,7.6c-26.8-6.5-25.4-31.1-25.4-31.8c0,0-0.3-67.9-0.4-93.5
	c-0.1-15.3-7.8-27.5-17.2-27.4c-7.1,0-20.1,0.1-20.1,0.1l0.3,56.3l23.1-0.2v8.4l-23,0.1c0,0,0.1,31.8,0.3,67.5
	c0.2,29.7-40,29.9-40.1,0.2c-0.2-45.3-0.6-140.6-0.6-140.6s60-0.3,88.4-0.5c18.1-0.1,28.3,12.8,28.4,31.1
	c0.1,26.2,0.5,98.9,0.5,98.9c0.1,16.3,12.7,20.8,19.4,16.3c11.1-5.3,8.8-18.6,8.6-69.3c-0.1-23.8,40.1-24,40.2-0.2
	c0.1,17.9,0.2,58.8,0.2,58.8c0.1,16.3,18.7,24.4,26.8,11c2.2-3,2.9-8.2,2.2-15.6c0-1.5-0.1-29.8-0.3-53.6
	c-0.1-24.5,38.5-25.5,38.7-0.9c0.1,32.7,0.3,61.1,0.3,61.1c0.1,8.2,15.7,15.4,21.6,0.5c3.7-9.7-6.9-39.4,11.6-60.3
	c20-23.2,71-28.1,89.2,4c15.9,28,1.7,55-8.7,65.5C459.3,368.2,437.8,365.3,429.6,365.4z"/>
<path class="st0" d="M505.4,361.3c-8.9,0-15.6-6.6-15.7-15.5c0-8.2,6.6-15.6,15.6-15.7c8.2,0,15.6,7.3,15.7,15.5
	C521,354.5,513.6,361.2,505.4,361.3z"/>
<path class="st0" d="M443.3,271.6c-20.9-6.6-25.2,29.1-23.6,47.7c0.8,17.1,10.6,43.8,26.9,35.6c11.1-6,14-27.6,12.4-43.9
	C457.5,293.1,452.2,274.6,443.3,271.6z"/>
</svg>
